<?xml version="1.0" standalone="no"?>
<!DOCTYPE svg PUBLIC "-//W3C//DTD SVG 1.1//EN" "http://www.w3.org/Graphics/SVG/1.1/DTD/svg11.dtd" >
<!--
2013-9-30: Created.
-->
<svg>
<metadata>
Created by iconfont
</metadata>
<defs>

<font id="iconfont" horiz-adv-x="1024" >
  <font-face
    font-family="iconfont"
    font-weight="500"
    font-stretch="normal"
    units-per-em="1024"
    ascent="896"
    descent="-128"
  />
    <missing-glyph />
    
    <glyph glyph-name="x" unicode="x" horiz-adv-x="1001"
d="M281 543q-27 -1 -53 -1h-83q-18 0 -36.5 -6t-32.5 -18.5t-23 -32t-9 -45.5v-76h912v41q0 16 -0.5 30t-0.5 18q0 13 -5 29t-17 29.5t-31.5 22.5t-49.5 9h-133v-97h-438v97zM955 310v-52q0 -23 0.5 -52t0.5 -58t-10.5 -47.5t-26 -30t-33 -16t-31.5 -4.5q-14 -1 -29.5 -0.5
t-29.5 0.5h-32l-45 128h-439l-44 -128h-29h-34q-20 0 -45 1q-25 0 -41 9.5t-25.5 23t-13.5 29.5t-4 30v167h911zM163 247q-12 0 -21 -8.5t-9 -21.5t9 -21.5t21 -8.5q13 0 22 8.5t9 21.5t-9 21.5t-22 8.5zM316 123q-8 -26 -14 -48q-5 -19 -10.5 -37t-7.5 -25t-3 -15t1 -14.5
t9.5 -10.5t21.5 -4h37h67h81h80h64h36q23 0 34 12t2 38q-5 13 -9.5 30.5t-9.5 34.5q-5 19 -11 39h-368zM336 498v228q0 11 2.5 23t10 21.5t20.5 15.5t34 6h188q31 0 51.5 -14.5t20.5 -52.5v-227h-327z" />
    

    
    <glyph glyph-name="cmstubiaozitihua15" unicode="&#59226;" d="M128.192 559.392c6.72 0 11.648 0 16.512 0 245.632 0 491.136-0.064 736.96 0.192C892.672 559.584 896 556.896 896 545.376c-0.32-163.968-0.32-327.744 0-491.712 0-10.368-3.136-13.248-13.184-13.248-247.232 0.32-494.592 0.192-741.696 0.128C132.352 40.544 128 41.312 128 52.384c0.384 163.392 0.192 326.912 0.192 490.304C128.192 547.616 128.192 552.544 128.192 559.392zM188.8 525.664C193.408 520.8 195.648 518.368 197.952 516.256 280.384 440.352 362.88 364.448 445.376 288.672c13.312-12.096 26.752-24.32 41.408-34.688 16.768-11.712 35.264-11.968 51.584 0.832 17.28 13.312 33.408 27.776 49.408 42.496 78.656 72 157.184 144.192 235.776 216.512 3.328 3.008 6.016 6.656 10.496 11.904C618.048 525.664 405.248 525.664 188.8 525.664zM187.904 78.496c1.152-1.408 2.304-3.008 3.648-4.48 213.888 0 427.648 0 641.408 0 0.832 1.344 1.536 2.496 2.368 3.84-4.544 3.392-9.344 6.528-13.568 10.304-65.984 60.48-132.16 120.832-197.76 181.76C615.488 277.728 610.688 276.576 602.944 269.408 586.24 254.24 569.024 239.52 551.04 225.76 525.888 206.816 499.2 206.112 473.792 225.312c-18.624 14.08-36.288 29.568-53.696 45.184C412.672 277.152 408.192 277.088 400.768 270.304c-66.304-61.376-132.992-122.432-199.616-183.296C197.376 83.552 192.256 81.376 187.904 78.496zM387.648 300C313.088 368.224 240.128 435.36 164.992 504.16c0-137.536 0-271.552 0-408.576C240.448 164.704 313.344 231.84 387.648 300zM859.648 499.68c-1.152 0.704-2.368 1.344-3.456 1.92-72.896-66.88-145.536-133.888-219.392-201.664 74.496-68.48 147.392-135.488 222.784-204.608C859.648 232.736 859.648 366.304 859.648 499.68z"  horiz-adv-x="1024" />

    
    <glyph glyph-name="renwode" unicode="&#58886;" d="M793.07234 52.702088l-562.273697 0c0 115.223461 0 230.446922 160.327819 291.012706 73.774552-46.681219 167.833267-46.681219 241.618058 0C793.07234 283.147986 793.07234 167.925549 793.07234 52.702088zM511.929348 715.290745c99.813232 0 180.735878-80.901143 180.735878-180.704136 0-99.792753-80.921622-180.704136-180.735878-180.704136-99.802992 0-180.724614 80.912407-180.724614 180.704136C331.205758 634.389601 412.12738 715.290745 511.929348 715.290745z"  horiz-adv-x="1024" />

    
    <glyph glyph-name="hdddetailgeneralrrecommandunabled" unicode="&#59049;" d="M999.616 384c0-269.312-218.304-487.616-487.616-487.616s-487.616 218.304-487.616 487.616c0 269.312 218.304 487.616 487.616 487.616s487.616-218.304 487.616-487.616zM219.968 366.784l494.976 284.864-66.56-378.432-193.664 42.624 146.624 204.032-199.68-192.832-181.696 39.808zM448.704 286.656l8.896-101.888 54.208 88.384-63.104 13.44z"  horiz-adv-x="1024" />

    
    <glyph glyph-name="dingwei" unicode="&#59614;" d="M889.036145 433.800219C866.780259 604.620723 731.500203 739.925339 560.678676 762.178155L560.678676 831.718975 461.197964 831.718975l0-69.540819C290.376437 739.925339 155.095357 604.620723 132.839471 433.800219L63.279209 433.800219l0-99.480712 69.560262 0c22.255887-170.81948 157.535943-306.124096 328.35747-328.377936l0-69.540819 99.480712 0 0 69.540819c170.821527 22.252817 306.101583 157.557432 328.35747 328.377936l69.560262 0L958.595384 433.800219 889.036145 433.800219zM510.937808 102.202962c-155.667386 0-281.857413 126.189004-281.857413 281.857413S355.270423 665.916764 510.937808 665.916764s281.857413-126.189004 281.857413-281.857413S666.606217 102.202962 510.937808 102.202962zM510.937808 533.281955c-82.408895 0-149.22158-66.807568-149.22158-149.22158S428.529937 234.838795 510.937808 234.838795c82.414011 0 149.22158 66.807568 149.22158 149.22158S593.351819 533.281955 510.937808 533.281955z"  horiz-adv-x="1024" />

    
    <glyph glyph-name="jiankuohaoxiyou" unicode="&#59079;" d="M642.174253 391.40582C650.164439 384.164713 650.070886 373.825747 641.84009 366.623802L332.618569 96.05497C323.751654 88.296418 322.853148 74.818816 330.611697 65.951902 338.370249 57.084988 351.847851 56.186481 360.714765 63.94503L669.936288 334.513862C697.36486 358.513862 697.727953 398.641139 670.825747 423.021263L360.992414 703.807722C352.26205 711.719614 338.770837 711.056111 330.858944 702.325748 322.947053 693.595384 323.610556 680.104171 332.340919 672.192277L642.174253 391.40582Z"  horiz-adv-x="1024" />

    
    <glyph glyph-name="jiankuohaoxizuo" unicode="&#59082;" d="M363.840919 423.021263C336.938714 398.641139 337.301807 358.513862 364.730379 334.513862L673.951902 63.94503C682.818816 56.186481 696.296418 57.084988 704.05497 65.951902 711.813519 74.818816 710.915012 88.296418 702.048098 96.05497L392.826577 366.623802C384.59578 373.825747 384.502227 384.164713 392.492414 391.40582L702.325747 672.192277C711.056111 680.104171 711.719614 693.595384 703.807723 702.325748 695.895829 711.056111 682.404617 711.719614 673.674253 703.807722L363.840919 423.021263Z"  horiz-adv-x="1024" />

    
    <glyph glyph-name="jiaotong" unicode="&#58887;" d="M905.750829 114.957451c-0.007163-2.487657 0.007163-3.936659 0.075725-3.88754-1.777483-0.061398-3.505847-0.199545-5.276167-0.275269l-5.850242-4.673439 0 4.378727c-253.591649-15.015995-327.740416-106.128109-350.062817-123.911124l0-36.051077-129.652895 0L414.984433 741.418342l64.826448 77.791737 64.826448-77.791737 0-153.921625c20.305465 7.189749 42.059931 11.302417 64.826448 11.302417 107.412358 0 194.479343-87.071078 194.479343-194.47832 0-98.589412-73.431429-179.846064-168.548764-192.551434l0-1.926886-51.861158 0 0 116.687606 12.96529 0 0 1.14815c4.217045-0.731664 8.53642-1.14815 12.96529-1.14815 42.962487 0 77.791737 34.82925 77.791737 77.791737 0 42.963511-34.82925 77.791737-77.791737 77.791737-27.071565 0-50.891064-13.846356-64.826448-34.821063l0-311.249837c80.422657 28.240181 79.801511 66.967204 350.062817 73.385381l0 0.415462 0.499373-0.396019c3.567245 0.081864 7.039323 0.348947 10.628058 0.396019 0.334621-0.278339 0.533143-3.841491 0.629333-9.404184l53.070706-42.456974L905.750829 114.957451 905.750829 114.957451zM64.921615 268.184251l77.791737 58.34585 233.376235 0 0-116.687606L142.712329 209.842495 64.921615 268.184251 64.921615 268.184251zM64.921615 268.184251"  horiz-adv-x="1024" />

    
    <glyph glyph-name="ren" unicode="&#58942;" d="M455.035614 270.701584c0 11.271718 0.158612 23.706935 0.317225 36.83186 13.599739 14.869662 44.821835 53.18327 57.151651 105.360629 12.594853 5.821589 23.177885 18.362206 29.79356 35.879162 9.260921 24.659633 9.948583 58.68661-8.096399 80.753185 0.106424 0.423649 0.158612 0.687662 0.211824 1.111311 3.387144 30.90487 12.383028 113.033379-37.095873 166.851099-28.522614 31.009248-71.228251 55.458079-126.844943 56.939827-55.617715-1.481747-98.322329-25.929556-126.844943-56.939827-49.478901-53.81772-40.483017-135.946228-37.149085-166.851099 0.053212-0.423649 0.105401-0.687662 0.158612-1.111311-18.044982-22.066575-17.35732-56.093553-8.096399-80.753185 6.66684-17.515932 17.092283-30.058596 29.686113-35.879162 12.329816-52.230572 43.340087-90.490967 56.939827-105.360629 0.158612-13.176091-0.211824-24.235984-0.211824-35.508725 0-123.933637-284.488333-96.68197-284.488333-224.00275l0-34.450626 740.855268 0 0 34.450626C741.321896 176.34866 455.033567 149.095969 455.035614 270.701584zM805.423843 286.641625c0 8.586562 0.12075 18.061354 0.242524 28.059056 10.359952 11.329023 34.147728 40.517809 43.540655 80.269162 9.595542 4.433986 17.658172 13.989619 22.697955 27.334555 7.055696 18.786878 7.579629 44.710294-6.16849 61.522192 0.079818 0.322341 0.12075 0.523933 0.160659 0.846274 2.579755 23.545252 9.43386 86.11531-28.261671 127.116119-21.729907 23.62507-54.263881 42.25129-96.636944 43.379996-42.371016-1.128707-74.906014-19.754926-96.636944-43.379996-37.694507-41.001833-30.841426-103.57189-28.30158-127.116119 0.039909-0.322341 0.080841-0.523933 0.12075-0.846274-13.748119-16.811898-13.223163-42.73429-6.16849-61.522192 5.080715-13.344936 13.022595-22.899546 22.618137-27.334555 9.392928-39.792285 33.017998-68.940139 43.379996-80.269162 0.12075-10.039657-0.160659-18.46556-0.160659-27.052123 0-35.407418-30.478152-54.617945-68.576865-69.913303-33.587979-13.485129 54.0408-22.785959 115.891474-52.531424 55.07741-26.488281 83.528392-74.456782 83.528392-74.456782l216.84063 0 0 26.245757C1023.533372 214.757434 805.423843 193.995575 805.423843 286.641625z"  horiz-adv-x="1024" />

    
    <glyph glyph-name="guanbi" unicode="&#58907;" d="M512 875.52c-271.36 0-491.52-220.16-491.52-491.52s220.16-491.52 491.52-491.52 491.52 220.16 491.52 491.52-220.16 491.52-491.52 491.52zM460.288 267.776c0-17.92-14.336-32.256-32.256-32.256s-32.256 14.336-32.256 32.256v232.96c0 17.92 14.336 32.256 32.256 32.256s32.256-14.336 32.256-32.256V267.776z m167.424 0c0-17.92-14.336-32.256-32.256-32.256s-32.256 14.336-32.256 32.256v232.96c0 17.92 14.336 32.256 32.256 32.256s32.256-14.336 32.256-32.256V267.776z"  horiz-adv-x="1024" />

    
    <glyph glyph-name="sousuo1-copy" unicode="&#58659;" d="M873.501 22.253c-12.056-12.056-31.6-12.056-43.657 0l-184.091 184.091c-53.236-43.471-121.188-69.603-195.271-69.603-170.669 0-309.024 138.355-309.024 309.024s138.355 309.020 309.024 309.020 309.020-138.355 309.020-309.020c0-33.653-5.807-65.843-15.818-96.137-0.575-3.731-1.822-7.198-3.606-10.358-0.973-2.637-1.734-5.372-2.776-7.977l-1.743 1.747c-5.618-5.876-13.496-9.58-22.266-9.58-17.048 0-30.869 13.822-30.869 30.868l-0.283 2.864c0 8.115 3.198 15.439 8.315 20.949l-2.864 2.86c5.724 20.834 9.028 42.678 9.028 65.332 0 136.256-110.458 246.713-246.713 246.713-136.256 0-246.713-110.458-246.713-246.713 0-136.259 110.458-246.718 246.713-246.718 67.549 0 128.706 27.197 173.26 71.177 0.19 0.204 0.315 0.441 0.444 0.672l44.689-0.765 106.179-106.179 0.2 0.2 98.82-98.82c12.056-12.056 12.056-31.6 0-43.651z"  horiz-adv-x="1024" />

    
    <glyph glyph-name="suo" unicode="&#58998;" d="M844.121939 466.646677h-491.274363V632.963518c0 88.01999 71.644178 159.664168 159.664168 159.664168s159.152424-71.644178 159.152424-159.664168V594.070965h99.278361v42.986506C770.942529 779.834083 654.776612 896 512 896 369.223388 896 253.057471 779.834083 253.057471 637.057471v-170.410794H179.878061c-35.310345 0-63.968016-28.657671-63.968016-63.968016v-466.710645c0-35.310345 28.657671-63.968016 63.968016-63.968016h663.732134c35.310345 0 63.968016 28.657671 63.968016 63.968016V403.190405c0.511744 34.798601-28.145927 63.456272-63.456272 63.456272zM547.822089 157.553223v-101.837081c0-4.605697-3.582209-8.187906-8.187906-8.187906H484.365817c-4.605697 0-8.69965 4.093953-8.69965 8.187906v101.837081c-25.587206 13.305347-43.498251 39.404298-43.498251 70.62069 0 44.009995 35.822089 79.32034 79.32034 79.32034 44.009995 0 79.32034-35.822089 79.32034-79.32034 1.023488-31.216392-16.887556-57.315342-42.986507-70.62069zM721.303348 592.023988m-49.63918 0a49.63918 49.63918 0 1 1 99.278361 0 49.63918 49.63918 0 1 1-99.278361 0Z"  horiz-adv-x="1024" />

    
    <glyph glyph-name="icon-life-flag" unicode="&#59029;" d="M204.348 772.358c-23.153 0-48.532-18.753-48.532-41.949v-691.843c0-23.106 24.808-41.948 47.918-41.948 23.103 0 48.529 18.843 48.529 41.948V730.409c-0.001 23.197-24.808 41.949-47.915 41.949z m498.048-57.574c-136.077 0-136.077 55.776-272.153 55.776-78.551 0-139.203-36.651-139.203-36.651l-0.57-417.555s61.222 36.598 139.773 36.598c136.074 0 136.074-55.777 272.153-55.777 85.129 0 170.642 44.698 170.642 44.698V759.385c0.001 0-85.51-44.601-170.642-44.601z"  horiz-adv-x="1024" />

    
    <glyph glyph-name="email" unicode="&#58626;" d="M899.891 691.118h-775.823c-45.834 0-83.108-34.447-83.108-76.8v-460.8c0-42.353 37.274-76.8 83.108-76.8h775.823c45.793 0 83.108 34.447 83.108 76.8v460.8c0 42.353-37.356 76.8-83.108 76.8v0zM96.379 153.518v450.97l244.49-226.099-244.49-225.935c0 0.369 0 0.737 0 1.065v0zM136.397 639.918h751.124l-375.521-347.013-375.603 347.013zM380.109 342.303l131.85-121.856 132.465 122.429 232.694-214.999h-729.006l231.997 214.426zM684.442 378.388h-1.597l244.736 226.099v-450.765l-243.139 224.666z"  horiz-adv-x="1024" />

    
    <glyph glyph-name="gengduo" unicode="&#58971;" d="M0 327.68h114.347V440.32H0v-112.64zM0 102.4h114.347V215.04H0V102.4z m0 450.56h114.347V665.6H0v-112.64z m226.987-225.28H1024V440.32H226.987v-112.64z m0-225.28H1024V215.04H226.987V102.4z m0 563.2v-112.64H1024V665.6H226.987z"  horiz-adv-x="1024" />

    
    <glyph glyph-name="shezhi" unicode="&#58932;" d="M620.6 45.1c-13 0-25.7 5.4-33.9 14.4-11.1 12.2-46.4 44-75.3 44-28.7 0-64.5-31.9-74.8-43.1-8.2-8.9-20.7-14.2-33.6-14.2-6.1 0-11.9 1.2-17.2 3.5l-0.9 0.4-87.9 49.1-0.9 0.6c-16 11.2-22.1 33.1-14.2 50.9 0.1 0.1 8.1 18.7 8.1 35.6 0 51.3-41.8 93.1-93.1 93.1h-3.7c-14.7 0-26.7 13.1-30.5 33.3-0.3 1.6-7.5 40-7.5 70.2 0 30.2 7.2 68.6 7.5 70.2 3.9 20.5 16.1 33.6 31.1 33.3h3.1c51.3 0 93.1 41.8 93.1 93.1 0 16.9-8 35.5-8.1 35.6-7.9 17.8-1.8 39.7 14.3 50.9l0.9 0.6 92.7 50.9 1 0.4c5.2 2.2 10.9 3.4 17 3.4 12.9 0 25.5-5.2 33.7-13.9 11-11.5 45.6-41.4 73.7-41.4 27.8 0 62.3 29.3 73.2 40.6 8.2 8.5 20.7 13.6 33.4 13.6 6.2 0 12-1.2 17.3-3.5l0.9-0.4 89.5-49.7 0.9-0.6c16-11.2 22.1-33.1 14.2-50.9-0.1-0.1-8.1-18.7-8.1-35.6 0-51.3 41.8-93.1 93.1-93.1h3.1c14.9 0.3 27.2-12.8 31.1-33.3 0.3-1.6 7.5-40 7.5-70.2 0-30.2-7.2-68.6-7.5-70.2-3.9-20.5-16.1-33.6-31.1-33.3h-3.1c-51.3 0-93.1-41.8-93.1-93.1 0-16.9 8-35.5 8.1-35.6 7.9-17.8 1.8-39.7-14.2-50.9l-0.9-0.6-91-50.3-1-0.4c-5.2-2.3-10.9-3.4-16.9-3.4z m-2.8 42.9c0.4-0.3 1.6-0.7 2.8-0.7h0.1l85 47c-2.1 4.8-11.4 27.9-11.4 52.1 0 72.2 56.9 131.4 128.2 135.1 1 5.7 6.6 37.5 6.6 61.5 0 23.9-5.6 55.8-6.6 61.5-71.3 3.7-128.2 62.9-128.2 135.1 0 24.2 9.4 47.4 11.5 52.1l-83.7 46.5h-0.3c-1.4 0-2.8-0.5-3.2-0.8-1.4-1.4-13.5-13.7-31-26-25.8-18.1-50.2-27.3-72.5-27.3-22.5 0-47.1 9.4-73.1 27.9-17.5 12.5-29.7 25-31.1 26.5-0.4 0.3-1.8 0.8-3.2 0.8h-0.3l-86.7-47.6c2.1-4.8 11.4-27.9 11.4-52 0-72.2-56.9-131.4-128.2-135.1-1-5.7-6.6-37.5-6.6-61.5 0-23.9 5.6-55.8 6.6-61.5 71.3-3.7 128.2-62.9 128.2-135.1 0-24.2-9.5-47.4-11.5-52.1l82-45.9h0.2c1.2 0 2.3 0.4 2.7 0.7 1.5 1.6 13.8 14.6 31.4 27.5 26.3 19.3 51.3 29 74.3 29 23.2 0 48.4-10 74.8-29.6 18-13.2 30.3-26.5 31.8-28.1zM511.7 259.3c-68.4 0-124 55.6-124 124s55.6 124 124 124 124-55.6 124-124c0-68.3-55.6-124-124-124z m0 205.8c-45.1 0-81.8-36.7-81.8-81.8 0-45.1 36.7-81.8 81.8-81.8s81.8 36.7 81.8 81.8c0 45.1-36.7 81.8-81.8 81.8z"  horiz-adv-x="1024" />

    
    <glyph glyph-name="jiaochajiantou" unicode="&#58893;" d="M59.152 639.935h168.115l207.55-214.295 81.464 83.539-224.414 231.158a56.817 56.817 0 0 1-40.731 17.383H59.152C26.486 757.716 0.008 731.234 0.008 698.568s26.478-59.147 59.144-59.152v0.52z m940.72 0h33.987l-36.062-37.1a59.67 59.67 0 0 1-16.864-41.769 58.373 58.373 0 0 1 58.374-58.892 56.817 56.817 0 0 1 40.732 17.382l133.61 137.761c22.47 23.314 22.47 60.226 0 83.54L1079.26 878.616A56.557 56.557 0 0 1 1039.307 896a58.373 58.373 0 0 1-57.595-59.152 59.67 59.67 0 0 1 16.863-41.77l36.062-36.84H865.484a56.817 56.817 0 0 1-40.732-17.9L227.267 127.804H59.152C26.483 127.805 0 101.322 0 68.654c0-32.669 26.483-59.152 59.152-59.152h191.984a56.557 56.557 0 0 1 40.731 17.382l596.707 613.051h111.298z m79.388-392.529a56.557 56.557 0 0 1-39.953 18.42 58.373 58.373 0 0 1-57.595-59.152 59.67 59.67 0 0 1 16.863-41.769l36.062-37.1H889.352L680.505 342.101l-82.242-83.54 225.71-231.677a56.817 56.817 0 0 1 40.732-17.382h168.375l-35.283-36.84a59.67 59.67 0 0 1-16.864-41.77 58.373 58.373 0 0 1 58.374-58.892 56.817 56.817 0 0 1 40.732 17.382l134.388 137.762c22.47 23.313 22.47 60.225 0 83.539L1079.26 247.406z"  horiz-adv-x="1232" />

    
    <glyph glyph-name="shanchuanniucopy" unicode="&#58970;" d="M512 384m-512 0a512 512 0 1 1 1024 0 512 512 0 1 1-1024 0ZM273.066667 452.266667h477.866666a68.266667 68.266667 0 1 0 0-136.533334H273.066667a68.266667 68.266667 0 1 0 0 136.533334z"  horiz-adv-x="1024" />

    
    <glyph glyph-name="bofanganniu" unicode="&#58946;" d="M508.5 779.7c216.9 0 392.6-175.8 392.6-392.6S725.3-5.6 508.5-5.6 115.8 170.2 115.8 387.1s175.8 392.6 392.7 392.6z m0-746c195.2 0 353.4 158.2 353.4 353.4S703.7 740.4 508.5 740.4 155.1 582.2 155.1 387.1s158.2-353.4 353.4-353.4zM508.5 33.7c-195.2 0-353.4 158.2-353.4 353.4s158.2 353.4 353.4 353.4 353.4-158.2 353.4-353.4-158.2-353.4-353.4-353.4zM659 414.3c-57.4 39.3-161.6 98.2-220.9 134.6-24.3 15.4-44.8 9.2-46.7-18-1.4-73 0-213.7 0-288 1.2-27.7 25.5-31.3 46.5-20.2 59.2 36.1 161.1 98.1 220.6 134.4-0.4 0.3 45.2 25.5 0.5 57.2z"  horiz-adv-x="1024" />

    
    <glyph glyph-name="Landers" unicode="&#58915;" d="M955.733333-128H136.533333a136.533333 136.533333 0 0 0-136.533333 136.533333V759.466667a136.533333 136.533333 0 0 0 136.533333 136.533333h819.2a136.533333 136.533333 0 0 0 136.533334-136.533333v-750.933334a136.533333 136.533333 0 0 0-136.533334-136.533333z m0 819.2H477.866667v-341.333333h477.866666V691.2z"  horiz-adv-x="1092" />

    
    <glyph glyph-name="networkstate_b" unicode="&#59043;" d="M512 896C230.4 896 0 665.6 0 384s230.4-512 512-512 512 230.4 512 512S793.6 896 512 896z m412.8-336h-208c-25.6 102.4-70.4 195.2-131.2 265.6 153.6-25.6 278.4-128 339.2-265.6zM960 384c0-38.4-6.4-76.8-16-112h-217.6c6.4 35.2 9.6 73.6 9.6 112s-3.2 76.8-9.6 112h217.6c9.6-35.2 16-73.6 16-112z m-585.6-176h275.2c-25.6-99.2-73.6-188.8-137.6-249.6-64 60.8-112 150.4-137.6 249.6z m-12.8 64c-6.4 35.2-9.6 73.6-9.6 112 0 38.4 3.2 76.8 9.6 112h300.8c6.4-35.2 9.6-73.6 9.6-112s-3.2-76.8-9.6-112h-300.8zM64 384c0 38.4 6.4 76.8 16 112h217.6C291.2 460.8 288 422.4 288 384s3.2-76.8 9.6-112H80C70.4 307.2 64 345.6 64 384z m585.6 176h-275.2c25.6 99.2 73.6 188.8 137.6 249.6 64-60.8 112-150.4 137.6-249.6z m-211.2 265.6c-60.8-70.4-105.6-163.2-131.2-265.6H99.2C160 697.6 284.8 800 438.4 825.6zM99.2 208h208c25.6-102.4 70.4-195.2 131.2-265.6-153.6 25.6-278.4 128-339.2 265.6z m486.4-265.6c60.8 70.4 105.6 163.2 131.2 265.6h208c-60.8-137.6-185.6-240-339.2-265.6z"  horiz-adv-x="1024" />

    


  </font>
</defs>
</svg>
